<svg width="720" height="456" viewBox="0 0 720 456" fill="none" xmlns="http://www.w3.org/2000/svg">
<rect width="720" height="456" fill="#333333"/>
<g id="nubank front" clip-path="url(#clip0_1_15)">
<rect id="Rectangle 5" width="720" height="456" rx="25" fill="url(#paint0_linear_1_15)"/>
<path id="Felipe c Castilho" d="M224.132 355.505V337.985H227.54V355.505H224.132ZM227.06 348.209V345.329L234.068 345.305V348.185L227.06 348.209ZM227.06 340.865V337.985H234.404V340.865H227.06ZM239.961 355.505V337.985H243.297V355.505H239.961ZM242.817 355.505V352.625H250.761V355.505H242.817ZM242.817 348.041V345.161H250.137V348.041H242.817ZM242.817 340.865V337.985H250.569V340.865H242.817ZM256.658 355.505V337.985H260.066V355.505H256.658ZM259.586 355.505V352.505H267.146V355.505H259.586ZM272.372 355.505V337.985H275.78V355.505H272.372ZM285.48 350.129V347.177H288.888C289.576 347.177 290.152 347.041 290.616 346.769C291.096 346.497 291.456 346.121 291.696 345.641C291.952 345.161 292.08 344.609 292.08 343.985C292.08 343.361 291.952 342.809 291.696 342.329C291.456 341.849 291.096 341.481 290.616 341.225C290.152 340.953 289.576 340.817 288.888 340.817H285.48V337.865H288.6C290.072 337.865 291.32 338.105 292.344 338.585C293.384 339.065 294.176 339.753 294.72 340.649C295.264 341.529 295.536 342.577 295.536 343.793V344.177C295.536 345.393 295.264 346.449 294.72 347.345C294.176 348.225 293.384 348.913 292.344 349.409C291.32 349.889 290.072 350.129 288.6 350.129H285.48ZM282.552 355.505V337.865H285.96V355.505H282.552ZM300.749 355.505V337.985H304.085V355.505H300.749ZM303.605 355.505V352.625H311.549V355.505H303.605ZM303.605 348.041V345.161H310.925V348.041H303.605ZM303.605 340.865V337.985H311.357V340.865H303.605ZM332.921 355.961C331.337 355.961 329.977 355.681 328.841 355.121C327.705 354.561 326.777 353.833 326.057 352.937C325.353 352.041 324.833 351.065 324.497 350.009C324.161 348.953 323.993 347.937 323.993 346.961V346.433C323.993 345.345 324.161 344.273 324.497 343.217C324.849 342.161 325.385 341.201 326.105 340.337C326.825 339.473 327.737 338.785 328.841 338.273C329.961 337.745 331.281 337.481 332.801 337.481C334.385 337.481 335.761 337.769 336.929 338.345C338.113 338.905 339.057 339.705 339.761 340.745C340.465 341.769 340.889 342.969 341.033 344.345H337.601C337.473 343.545 337.185 342.873 336.737 342.329C336.305 341.769 335.753 341.353 335.081 341.081C334.409 340.793 333.649 340.649 332.801 340.649C331.937 340.649 331.169 340.801 330.497 341.105C329.825 341.393 329.265 341.809 328.817 342.353C328.369 342.897 328.025 343.537 327.785 344.273C327.561 345.009 327.449 345.825 327.449 346.721C327.449 347.585 327.561 348.385 327.785 349.121C328.025 349.857 328.377 350.505 328.841 351.065C329.305 351.609 329.873 352.033 330.545 352.337C331.233 352.641 332.025 352.793 332.921 352.793C334.233 352.793 335.337 352.473 336.233 351.833C337.145 351.177 337.697 350.265 337.889 349.097H341.321C341.161 350.345 340.737 351.489 340.049 352.529C339.361 353.569 338.417 354.401 337.217 355.025C336.017 355.649 334.585 355.961 332.921 355.961ZM362.073 355.961C360.489 355.961 359.129 355.681 357.993 355.121C356.857 354.561 355.929 353.833 355.209 352.937C354.505 352.041 353.985 351.065 353.649 350.009C353.313 348.953 353.145 347.937 353.145 346.961V346.433C353.145 345.345 353.313 344.273 353.649 343.217C354.001 342.161 354.537 341.201 355.257 340.337C355.977 339.473 356.889 338.785 357.993 338.273C359.113 337.745 360.433 337.481 361.953 337.481C363.537 337.481 364.913 337.769 366.081 338.345C367.265 338.905 368.209 339.705 368.913 340.745C369.617 341.769 370.041 342.969 370.185 344.345H366.753C366.625 343.545 366.337 342.873 365.889 342.329C365.457 341.769 364.905 341.353 364.233 341.081C363.561 340.793 362.801 340.649 361.953 340.649C361.089 340.649 360.321 340.801 359.649 341.105C358.977 341.393 358.417 341.809 357.969 342.353C357.521 342.897 357.177 343.537 356.937 344.273C356.713 345.009 356.601 345.825 356.601 346.721C356.601 347.585 356.713 348.385 356.937 349.121C357.177 349.857 357.529 350.505 357.993 351.065C358.457 351.609 359.025 352.033 359.697 352.337C360.385 352.641 361.177 352.793 362.073 352.793C363.385 352.793 364.489 352.473 365.385 351.833C366.297 351.177 366.849 350.265 367.041 349.097H370.473C370.313 350.345 369.889 351.489 369.201 352.529C368.513 353.569 367.569 354.401 366.369 355.025C365.169 355.649 363.737 355.961 362.073 355.961ZM373.857 355.505L379.833 337.985H385.401L391.545 355.505H388.041L382.833 340.313L384.057 340.841H381.057L382.305 340.313L377.265 355.505H373.857ZM378.033 350.849L379.113 347.969H386.217L387.273 350.849H378.033ZM402.406 355.961C400.854 355.961 399.542 355.713 398.47 355.217C397.414 354.721 396.606 354.041 396.046 353.177C395.486 352.297 395.206 351.305 395.206 350.201H398.542C398.542 350.665 398.67 351.121 398.926 351.569C399.182 352.001 399.59 352.353 400.15 352.625C400.726 352.897 401.478 353.033 402.406 353.033C403.238 353.033 403.934 352.913 404.494 352.673C405.054 352.433 405.47 352.121 405.742 351.737C406.014 351.337 406.15 350.889 406.15 350.393C406.15 349.769 405.886 349.273 405.358 348.905C404.83 348.521 404.014 348.281 402.91 348.185L401.374 348.065C399.694 347.921 398.35 347.401 397.342 346.505C396.35 345.593 395.854 344.393 395.854 342.905C395.854 341.785 396.118 340.825 396.646 340.025C397.174 339.209 397.91 338.585 398.854 338.153C399.814 337.705 400.934 337.481 402.214 337.481C403.542 337.481 404.686 337.713 405.646 338.177C406.606 338.641 407.35 339.297 407.878 340.145C408.406 340.977 408.67 341.961 408.67 343.097H405.334C405.334 342.617 405.214 342.177 404.974 341.777C404.75 341.361 404.406 341.033 403.942 340.793C403.494 340.537 402.918 340.409 402.214 340.409C401.542 340.409 400.982 340.521 400.534 340.745C400.086 340.969 399.75 341.273 399.526 341.657C399.302 342.041 399.19 342.457 399.19 342.905C399.19 343.449 399.39 343.929 399.79 344.345C400.19 344.745 400.822 344.977 401.686 345.041L403.222 345.185C404.47 345.281 405.566 345.545 406.51 345.977C407.454 346.409 408.182 346.993 408.694 347.729C409.222 348.465 409.486 349.353 409.486 350.393C409.486 351.497 409.198 352.473 408.622 353.321C408.046 354.153 407.222 354.801 406.15 355.265C405.094 355.729 403.846 355.961 402.406 355.961ZM417.989 355.505V340.505H421.397V355.505H417.989ZM412.925 340.985V337.985H426.461V340.985H412.925ZM431.63 355.505V337.985H435.038V355.505H431.63ZM441.81 355.505V337.985H445.218V355.505H441.81ZM444.738 355.505V352.505H452.298V355.505H444.738ZM468.971 355.505V337.985H472.379V355.505H468.971ZM457.475 355.505V337.985H460.883V355.505H457.475ZM460.259 348.233V345.233H469.595V348.233H460.259ZM487.326 355.961C485.742 355.961 484.366 355.681 483.198 355.121C482.046 354.561 481.086 353.833 480.318 352.937C479.566 352.025 478.998 351.049 478.614 350.009C478.246 348.953 478.062 347.937 478.062 346.961V346.433C478.062 345.361 478.254 344.297 478.638 343.241C479.022 342.169 479.598 341.201 480.366 340.337C481.15 339.473 482.118 338.785 483.27 338.273C484.422 337.745 485.774 337.481 487.326 337.481C488.862 337.481 490.206 337.745 491.358 338.273C492.51 338.785 493.47 339.473 494.238 340.337C495.022 341.201 495.606 342.169 495.99 343.241C496.374 344.297 496.566 345.361 496.566 346.433V346.961C496.566 347.937 496.374 348.953 495.99 350.009C495.622 351.049 495.054 352.025 494.286 352.937C493.534 353.833 492.574 354.561 491.406 355.121C490.254 355.681 488.894 355.961 487.326 355.961ZM487.326 352.793C488.222 352.793 489.022 352.633 489.726 352.313C490.446 351.993 491.054 351.553 491.55 350.993C492.062 350.417 492.446 349.769 492.702 349.049C492.974 348.313 493.11 347.537 493.11 346.721C493.11 345.841 492.974 345.033 492.702 344.297C492.446 343.561 492.062 342.921 491.55 342.377C491.054 341.833 490.446 341.409 489.726 341.105C489.006 340.801 488.206 340.649 487.326 340.649C486.43 340.649 485.622 340.801 484.902 341.105C484.182 341.409 483.566 341.833 483.054 342.377C482.558 342.921 482.174 343.561 481.902 344.297C481.646 345.033 481.518 345.841 481.518 346.721C481.518 347.537 481.646 348.313 481.902 349.049C482.174 349.769 482.558 350.417 483.054 350.993C483.566 351.553 484.182 351.993 484.902 352.313C485.622 352.633 486.43 352.793 487.326 352.793Z" fill="#FEFBFF"/>
<path id="Union" fill-rule="evenodd" clip-rule="evenodd" d="M95.637 312.356C95.637 312.357 95.6373 312.331 95.6482 312.276C95.6587 312.222 95.677 312.151 95.7063 312.064C95.7651 311.89 95.8617 311.67 96.005 311.422C96.2916 310.926 96.7475 310.346 97.4058 309.806C98.7046 308.74 100.835 307.797 104.112 308.038C117.072 308.989 124.387 317.915 124.387 324.666V364.673C124.387 365.31 124.24 365.605 124.104 365.746C123.976 365.88 123.69 366.051 123 366.051H115.277C114.588 366.051 114.302 365.88 114.173 365.746C114.038 365.605 113.89 365.31 113.89 364.673V327.743C113.89 325.333 112.706 322.926 110.96 321.139C109.209 319.347 106.788 318.071 104.185 318.071H95.637V312.356ZM104.185 320.071H95.637V364.673C95.637 365.667 95.4533 366.613 94.7644 367.268C94.0872 367.912 93.1529 368.051 92.25 368.051H84.387C83.58 368.051 82.6949 367.895 82.0098 367.297C81.2973 366.676 81 365.756 81 364.673V327.324C81 325.461 82.0637 323.173 83.6351 321.383C85.2198 319.579 87.507 318.071 90.143 318.071H93.637V312.356C93.637 311.789 93.8887 311.087 94.2732 310.422C94.6772 309.722 95.2886 308.955 96.1375 308.259C97.8531 306.852 100.497 305.767 104.258 306.043C117.976 307.05 126.387 316.603 126.387 324.666V364.673C126.387 365.574 126.183 366.468 125.547 367.131C124.903 367.802 123.995 368.051 123 368.051H115.277C114.282 368.051 113.375 367.802 112.731 367.131C112.094 366.468 111.89 365.574 111.89 364.673V327.743C111.89 325.968 110.998 324.039 109.529 322.536C108.065 321.038 106.133 320.071 104.185 320.071ZM90.143 320.071H93.637V364.673C93.637 365.496 93.4696 365.74 93.3862 365.819C93.2912 365.909 93.032 366.051 92.25 366.051H84.387C83.7898 366.051 83.4814 365.927 83.324 365.79C83.1942 365.676 83 365.407 83 364.673V327.324C83 326.109 83.7612 324.271 85.1379 322.703C86.5015 321.15 88.2858 320.071 90.143 320.071ZM165.083 373.634C165.083 373.635 165.082 373.661 165.071 373.714C165.061 373.767 165.043 373.838 165.013 373.925C164.955 374.1 164.858 374.319 164.715 374.568C164.428 375.064 163.972 375.644 163.314 376.184C162.015 377.249 159.885 378.192 156.608 377.952C143.648 377 136.333 368.074 136.333 361.324V321.317C136.333 320.68 136.48 320.385 136.616 320.244C136.744 320.11 137.03 319.939 137.72 319.939H145.442C146.132 319.939 146.418 320.11 146.546 320.244C146.682 320.385 146.829 320.68 146.829 321.317V358.246C146.829 360.656 148.014 363.064 149.76 364.851C151.51 366.642 153.931 367.919 156.535 367.919H165.083V373.633V373.634ZM156.535 365.919H165.083V321.317C165.083 320.322 165.266 319.377 165.955 318.721C166.632 318.077 167.567 317.939 168.47 317.939H176.333C177.14 317.939 178.025 318.095 178.71 318.692C179.422 319.313 179.72 320.233 179.72 321.317V358.666C179.72 360.528 178.656 362.817 177.085 364.606C175.5 366.411 173.213 367.919 170.577 367.919H167.083V373.633C167.083 374.201 166.831 374.902 166.446 375.568C166.042 376.267 165.431 377.034 164.582 377.73C162.867 379.137 160.223 380.223 156.462 379.946C142.743 378.939 134.333 369.387 134.333 361.324V321.317C134.333 320.416 134.537 319.521 135.173 318.858C135.817 318.188 136.724 317.939 137.72 317.939H145.442C146.438 317.939 147.345 318.188 147.989 318.858C148.625 319.521 148.829 320.416 148.829 321.317V358.246C148.829 360.021 149.722 361.95 151.19 363.453C152.655 364.952 154.587 365.919 156.535 365.919ZM170.577 365.919H167.083V321.317C167.083 320.493 167.25 320.25 167.333 320.171C167.429 320.08 167.688 319.939 168.47 319.939H176.333C176.93 319.939 177.238 320.063 177.396 320.2C177.526 320.313 177.72 320.582 177.72 321.317V358.666C177.72 359.881 176.959 361.719 175.582 363.287C174.218 364.839 172.434 365.919 170.577 365.919Z" fill="#FEFBFF"/>
<g id="Group 301">
<rect id="Rectangle 344" x="81.0723" y="158.072" width="97.9347" height="69.3406" rx="6.07624" fill="url(#paint1_linear_1_15)" stroke="#211F21" stroke-width="2.14455"/>
<path id="Vector 9" d="M81.4297 180.59H110.739" stroke="#211F21" stroke-width="2" stroke-linecap="round"/>
<path id="Vector 10" d="M81.4297 202.75H110.096" stroke="#211F21" stroke-width="2" stroke-linecap="round"/>
<path id="Vector 11" d="M150.055 202.75H178.649" stroke="#211F21" stroke-width="2" stroke-linecap="round"/>
<path id="Vector 12" d="M149.626 181.305H178.649" stroke="#211F21" stroke-width="2" stroke-linecap="round"/>
<circle id="Ellipse 12" cx="130.04" cy="168.438" r="2.14455" fill="#211F21"/>
<g id="Vector 13">
<path d="M231.705 207.701C236.976 194.467 237.577 186.996 231.705 173.522C231.081 172.093 231.705 170.901 232.42 170.663C233.134 170.425 234.24 170.663 234.921 172.093C241.839 186.608 241.418 194.747 235.279 209.265C234.564 210.695 233.226 210.875 232.42 210.337C231.476 209.708 231.259 208.819 231.705 207.701Z" fill="#FEFBFF"/>
<path d="M224.199 174.595C223.484 174.952 223.027 176.308 223.841 177.812C228.65 187.817 228.453 193.54 223.841 203.904C223.338 204.949 223.65 206.103 224.556 206.406C225.628 206.763 226.565 206.003 227.058 204.976C232.352 193.962 232.492 187.634 227.058 176.024C226.556 174.952 225.271 174.059 224.199 174.595Z" fill="#FEFBFF"/>
<path d="M217.05 179.241C215.978 179.599 215.788 180.785 216.335 182.101C219.182 188.94 219.63 192.775 216.335 199.615C215.693 200.806 215.481 202.07 216.693 202.474C217.904 202.878 218.777 202.24 219.195 201.402C223.418 193.027 222.471 188.331 219.195 179.956C218.915 179.241 218.123 178.884 217.05 179.241Z" fill="#FEFBFF"/>
<path d="M209.544 182.101C208.472 182.815 208.32 183.9 209.187 185.675C210.996 189.442 210.955 191.558 209.187 195.325C208.365 196.987 208.115 198.9 209.544 199.257C210.974 199.615 211.609 199.107 212.404 197.113C214.229 191.865 214.407 188.898 212.404 183.53C211.942 182.138 210.974 181.386 209.544 182.101Z" fill="#FEFBFF"/>
</g>
<path id="Vector 14" d="M145.766 172.727C143.024 163.386 137.903 158.787 129.682 158.787C119.674 158.787 116.846 166.408 110.739 180.233C114.649 189.384 114.69 194.314 110.739 202.75C117.145 221.132 121.891 226.793 130.04 226.698C140.762 226.698 143.814 217.61 149.698 202.75C146.604 194.375 146.273 189.753 149.151 181.377" stroke="#211F21" stroke-width="2" stroke-linecap="round"/>
</g>
<circle id="Ellipse 10" cx="579.75" cy="91.7505" r="45.7505" fill="#E71924"/>
<circle id="Ellipse 11" cx="635.509" cy="91.7505" r="45.7505" fill="#F99F19"/>
<path id="Intersect" fill-rule="evenodd" clip-rule="evenodd" d="M607.63 127.848C618.498 119.484 625.501 106.345 625.501 91.5706C625.501 76.7962 618.498 63.6574 607.63 55.293C596.762 63.6574 589.758 76.7962 589.758 91.5706C589.758 106.345 596.762 119.484 607.63 127.848Z" fill="#F26520"/>
</g>
<defs>
<linearGradient id="paint0_linear_1_15" x1="720" y1="3.38805e-05" x2="2.6083e-05" y2="456" gradientUnits="userSpaceOnUse">
<stop stop-color="#A950C4"/>
<stop offset="1" stop-color="#82269E"/>
</linearGradient>
<linearGradient id="paint1_linear_1_15" x1="171.651" y1="166.877" x2="87.6514" y2="222.877" gradientUnits="userSpaceOnUse">
<stop stop-color="#F4F4F4"/>
<stop offset="1" stop-color="#D6D6D6"/>
</linearGradient>
<clipPath id="clip0_1_15">
<rect width="720" height="456" fill="white"/>
</clipPath>
</defs>
</svg>
