<svg width="720" height="456" viewBox="0 0 720 456" fill="none" xmlns="http://www.w3.org/2000/svg">
<g clip-path="url(#clip0_15_45)">
<rect width="720" height="456" rx="25" fill="url(#paint0_linear_15_45)"/>
<text fill="#FEFBFF" xml:space="preserve" style="white-space: pre" font-family="Sora" font-size="24" font-weight="600" letter-spacing="0.1em"><tspan x="221.972" y="355.665">FELIPE C CASTILHO</tspan></text>
<path fill-rule="evenodd" clip-rule="evenodd" d="M95.637 312.356C95.637 312.357 95.6373 312.331 95.6482 312.276C95.6587 312.222 95.677 312.151 95.7063 312.064C95.7651 311.89 95.8617 311.67 96.005 311.422C96.2916 310.926 96.7475 310.346 97.4058 309.806C98.7046 308.74 100.835 307.797 104.112 308.038C117.072 308.989 124.387 317.915 124.387 324.666V364.673C124.387 365.31 124.24 365.605 124.104 365.746C123.976 365.88 123.69 366.051 123 366.051H115.277C114.588 366.051 114.302 365.88 114.173 365.746C114.038 365.605 113.89 365.31 113.89 364.673V327.743C113.89 325.333 112.706 322.926 110.96 321.139C109.209 319.347 106.788 318.071 104.185 318.071H95.637V312.356ZM104.185 320.071H95.637V364.673C95.637 365.667 95.4533 366.613 94.7644 367.268C94.0872 367.912 93.1529 368.051 92.25 368.051H84.387C83.58 368.051 82.6949 367.895 82.0098 367.297C81.2973 366.676 81 365.756 81 364.673V327.324C81 325.461 82.0637 323.173 83.6351 321.383C85.2198 319.579 87.507 318.071 90.143 318.071H93.637V312.356C93.637 311.789 93.8887 311.087 94.2732 310.422C94.6772 309.722 95.2886 308.955 96.1375 308.259C97.8531 306.852 100.497 305.767 104.258 306.043C117.976 307.05 126.387 316.603 126.387 324.666V364.673C126.387 365.574 126.183 366.468 125.547 367.131C124.903 367.802 123.995 368.051 123 368.051H115.277C114.282 368.051 113.375 367.802 112.731 367.131C112.094 366.468 111.89 365.574 111.89 364.673V327.743C111.89 325.968 110.998 324.039 109.529 322.536C108.065 321.038 106.133 320.071 104.185 320.071ZM90.143 320.071H93.637V364.673C93.637 365.496 93.4696 365.74 93.3862 365.819C93.2912 365.909 93.032 366.051 92.25 366.051H84.387C83.7898 366.051 83.4814 365.927 83.324 365.79C83.1942 365.676 83 365.407 83 364.673V327.324C83 326.109 83.7612 324.271 85.1379 322.703C86.5015 321.15 88.2858 320.071 90.143 320.071ZM165.083 373.634C165.083 373.635 165.082 373.661 165.071 373.714C165.061 373.767 165.043 373.838 165.013 373.925C164.955 374.1 164.858 374.319 164.715 374.568C164.428 375.064 163.972 375.644 163.314 376.184C162.015 377.249 159.885 378.192 156.608 377.952C143.648 377 136.333 368.074 136.333 361.324V321.317C136.333 320.68 136.48 320.385 136.616 320.244C136.744 320.11 137.03 319.939 137.72 319.939H145.442C146.132 319.939 146.418 320.11 146.546 320.244C146.682 320.385 146.829 320.68 146.829 321.317V358.246C146.829 360.656 148.014 363.064 149.76 364.851C151.51 366.642 153.931 367.919 156.535 367.919H165.083V373.633V373.634ZM156.535 365.919H165.083V321.317C165.083 320.322 165.266 319.377 165.955 318.721C166.632 318.077 167.567 317.939 168.47 317.939H176.333C177.14 317.939 178.025 318.095 178.71 318.692C179.422 319.313 179.72 320.233 179.72 321.317V358.666C179.72 360.528 178.656 362.817 177.085 364.606C175.5 366.411 173.213 367.919 170.577 367.919H167.083V373.633C167.083 374.201 166.831 374.902 166.446 375.568C166.042 376.267 165.431 377.034 164.582 377.73C162.867 379.137 160.223 380.223 156.462 379.946C142.743 378.939 134.333 369.387 134.333 361.324V321.317C134.333 320.416 134.537 319.521 135.173 318.858C135.817 318.188 136.724 317.939 137.72 317.939H145.442C146.438 317.939 147.345 318.188 147.989 318.858C148.625 319.521 148.829 320.416 148.829 321.317V358.246C148.829 360.021 149.722 361.95 151.19 363.453C152.655 364.952 154.587 365.919 156.535 365.919ZM170.577 365.919H167.083V321.317C167.083 320.493 167.25 320.25 167.333 320.171C167.429 320.08 167.688 319.939 168.47 319.939H176.333C176.93 319.939 177.238 320.063 177.396 320.2C177.526 320.313 177.72 320.582 177.72 321.317V358.666C177.72 359.881 176.959 361.719 175.582 363.287C174.218 364.839 172.434 365.919 170.577 365.919Z" fill="#FEFBFF"/>
<rect x="81.0723" y="158.072" width="97.9347" height="69.3406" rx="6.07624" fill="url(#paint1_linear_15_45)" stroke="#211F21" stroke-width="2.14455"/>
<path d="M81.4297 180.59H110.739" stroke="#211F21" stroke-width="2" stroke-linecap="round"/>
<path d="M81.4297 202.75H110.096" stroke="#211F21" stroke-width="2" stroke-linecap="round"/>
<path d="M150.055 202.75H178.649" stroke="#211F21" stroke-width="2" stroke-linecap="round"/>
<path d="M149.626 181.305H178.649" stroke="#211F21" stroke-width="2" stroke-linecap="round"/>
<circle cx="130.04" cy="168.438" r="2.14455" fill="#211F21"/>
<path d="M231.705 207.701C236.976 194.467 237.577 186.996 231.705 173.522C231.081 172.093 231.705 170.901 232.42 170.663C233.134 170.425 234.24 170.663 234.921 172.093C241.839 186.608 241.418 194.747 235.279 209.265C234.564 210.695 233.226 210.875 232.42 210.337C231.476 209.708 231.259 208.819 231.705 207.701Z" fill="#FEFBFF"/>
<path d="M224.199 174.595C223.484 174.952 223.027 176.308 223.841 177.812C228.65 187.817 228.453 193.54 223.841 203.904C223.338 204.949 223.65 206.103 224.556 206.406C225.628 206.763 226.565 206.003 227.058 204.976C232.352 193.962 232.492 187.634 227.058 176.024C226.556 174.952 225.271 174.059 224.199 174.595Z" fill="#FEFBFF"/>
<path d="M217.05 179.241C215.978 179.599 215.788 180.785 216.335 182.101C219.182 188.94 219.63 192.775 216.335 199.615C215.693 200.806 215.481 202.07 216.693 202.474C217.904 202.878 218.777 202.24 219.195 201.402C223.418 193.027 222.471 188.331 219.195 179.956C218.915 179.241 218.123 178.884 217.05 179.241Z" fill="#FEFBFF"/>
<path d="M209.544 182.101C208.472 182.815 208.32 183.9 209.187 185.675C210.996 189.442 210.955 191.558 209.187 195.325C208.365 196.987 208.115 198.9 209.544 199.257C210.974 199.615 211.609 199.107 212.404 197.113C214.229 191.865 214.407 188.898 212.404 183.53C211.942 182.138 210.974 181.386 209.544 182.101Z" fill="#FEFBFF"/>
<path d="M145.766 172.727C143.024 163.386 137.903 158.787 129.682 158.787C119.674 158.787 116.846 166.408 110.739 180.233C114.649 189.384 114.69 194.314 110.739 202.75C117.145 221.132 121.891 226.793 130.04 226.698C140.762 226.698 143.814 217.61 149.698 202.75C146.604 194.375 146.273 189.753 149.151 181.377" stroke="#211F21" stroke-width="2" stroke-linecap="round"/>
<circle cx="579.75" cy="91.7505" r="45.7505" fill="#E71924"/>
<circle cx="635.509" cy="91.7505" r="45.7505" fill="#F99F19"/>
<path fill-rule="evenodd" clip-rule="evenodd" d="M607.63 127.848C618.498 119.484 625.501 106.345 625.501 91.5706C625.501 76.7962 618.498 63.6574 607.63 55.293C596.762 63.6574 589.758 76.7962 589.758 91.5706C589.758 106.345 596.762 119.484 607.63 127.848Z" fill="#F26520"/>
</g>
<defs>
<linearGradient id="paint0_linear_15_45" x1="720" y1="3.38805e-05" x2="2.6083e-05" y2="456" gradientUnits="userSpaceOnUse">
<stop stop-color="#A950C4"/>
<stop offset="1" stop-color="#82269E"/>
</linearGradient>
<linearGradient id="paint1_linear_15_45" x1="171.651" y1="166.877" x2="87.6514" y2="222.877" gradientUnits="userSpaceOnUse">
<stop stop-color="#F4F4F4"/>
<stop offset="1" stop-color="#D6D6D6"/>
</linearGradient>
<clipPath id="clip0_15_45">
<rect width="720" height="456" fill="white"/>
</clipPath>
</defs>
</svg>
